{
 "asset": {
  "version": "2.0",
  "generator": "gltfpack 1.3"
 },
 "buffers": [
  {
   "uri": "old_military_compressor.bin",
   "byteLength": 659368
  }
 ],
 "bufferViews": [
  {
   "buffer": 0,
   "byteOffset": 0,
   "byteLength": 208056,
   "byteStride": 12,
   "target": 34962
  },
  {
   "buffer": 0,
   "byteOffset": 208056,
   "byteLength": 208056,
   "byteStride": 12,
   "target": 34962
  },
  {
   "buffer": 0,
   "byteOffset": 416112,
   "byteLength": 138704,
   "byteStride": 8,
   "target": 34962
  },
  {
   "buffer": 0,
   "byteOffset": 554816,
   "byteLength": 104550,
   "target": 34963
  }
 ],
 "accessors": [
  {
   "bufferView": 0,
   "byteOffset": 0,
   "componentType": 5126,
   "count": 17305,
   "type": "VEC3",
   "min": [
    -0.71849978,
    -0.000293962657,
    -5.05623627
   ],
   "max": [
    -0.124150634,
    1.17628896,
    -3.38104486
   ]
  },
  {
   "bufferView": 1,
   "byteOffset": 0,
   "componentType": 5126,
   "count": 17305,
   "type": "VEC3"
  },
  {
   "bufferView": 2,
   "byteOffset": 0,
   "componentType": 5126,
   "count": 17305,
   "type": "VEC2"
  },
  {
   "bufferView": 3,
   "byteOffset": 0,
   "componentType": 5123,
   "count": 52164,
   "type": "SCALAR"
  },
  {
   "bufferView": 0,
   "byteOffset": 207660,
   "componentType": 5126,
   "count": 33,
   "type": "VEC3",
   "min": [
    -0.411056817,
    0.851632416,
    -3.66394043
   ],
   "max": [
    -0.385287166,
    0.873531342,
    -3.63915157
   ]
  },
  {
   "bufferView": 1,
   "byteOffset": 207660,
   "componentType": 5126,
   "count": 33,
   "type": "VEC3"
  },
  {
   "bufferView": 2,
   "byteOffset": 138440,
   "componentType": 5126,
   "count": 33,
   "type": "VEC2"
  },
  {
   "bufferView": 3,
   "byteOffset": 104328,
   "componentType": 5123,
   "count": 111,
   "type": "SCALAR"
  }
 ],
 "samplers": [
  {
   "magFilter": 9729,
   "minFilter": 9987
  }
 ],
 "images": [
  {
   "mimeType": "image/jpeg",
   "name": "old_military_compressor_nor_gl",
   "uri": "textures/old_military_compressor_nor_gl_1k.jpg"
  },
  {
   "mimeType": "image/jpeg",
   "name": "old_military_compressor_diff",
   "uri": "textures/old_military_compressor_diff_1k.jpg"
  },
  {
   "mimeType": "image/jpeg",
   "name": "old_military_compressor_metal-old_military_compressor_rough",
   "uri": "textures/old_military_compressor_arm_1k.jpg"
  },
  {
   "mimeType": "image/jpeg",
   "name": "old_military_compressor_diff",
   "uri": "textures/old_military_compressor_diff_1k.jpg"
  }
 ],
 "textures": [
  {
   "sampler": 0,
   "source": 0
  },
  {
   "sampler": 0,
   "source": 1
  },
  {
   "sampler": 0,
   "source": 2
  },
  {
   "sampler": 0,
   "source": 0
  },
  {
   "sampler": 0,
   "source": 3
  },
  {
   "sampler": 0,
   "source": 2
  }
 ],
 "materials": [
  {
   "doubleSided": true,
   "name": "old_military_compressor",
   "normalTexture": {
    "index": 0
   },
   "pbrMetallicRoughness": {
    "baseColorTexture": {
     "index": 1
    },
    "metallicRoughnessTexture": {
     "index": 2
    }
   }
  },
  {
   "alphaMode": "BLEND",
   "doubleSided": true,
   "name": "old_military_compressor_glass",
   "normalTexture": {
    "index": 3
   },
   "pbrMetallicRoughness": {
    "baseColorTexture": {
     "index": 4
    },
    "metallicRoughnessTexture": {
     "index": 5
    }
   }
  }
 ],
 "meshes": [
  {
   "primitives": [
    {
     "attributes": {
      "POSITION": 0,
      "NORMAL": 1,
      "TEXCOORD_0": 2
     },
     "indices": 3,
     "material": 0
    },
    {
     "attributes": {
      "POSITION": 4,
      "NORMAL": 5,
      "TEXCOORD_0": 6
     },
     "indices": 7,
     "material": 1
    }
   ]
  }
 ],
 "nodes": [
  {
   "name": "old_military_compressor",
   "mesh": 0
  }
 ],
 "scenes": [
  {
   "name": "Scene",
   "nodes": [
    0
   ]
  }
 ],
 "scene": 0
}
