{
 "asset": {
  "version": "2.0",
  "generator": "gltfpack 1.3"
 },
 "buffers": [
  {
   "uri": "dry_branches_medium_01.bin",
   "byteLength": 166356
  }
 ],
 "bufferViews": [
  {
   "buffer": 0,
   "byteOffset": 0,
   "byteLength": 48888,
   "byteStride": 12,
   "target": 34962
  },
  {
   "buffer": 0,
   "byteOffset": 48888,
   "byteLength": 48888,
   "byteStride": 12,
   "target": 34962
  },
  {
   "buffer": 0,
   "byteOffset": 97776,
   "byteLength": 32592,
   "byteStride": 8,
   "target": 34962
  },
  {
   "buffer": 0,
   "byteOffset": 130368,
   "byteLength": 35988,
   "target": 34963
  }
 ],
 "accessors": [
  {
   "bufferView": 0,
   "byteOffset": 0,
   "componentType": 5126,
   "count": 1345,
   "type": "VEC3",
   "min": [
    -0.0680218562,
    -0.0539568365,
    -0.404730618
   ],
   "max": [
    0.0619199015,
    0.0888479203,
    0.372395247
   ]
  },
  {
   "bufferView": 1,
   "byteOffset": 0,
   "componentType": 5126,
   "count": 1345,
   "type": "VEC3"
  },
  {
   "bufferView": 2,
   "byteOffset": 0,
   "componentType": 5126,
   "count": 1345,
   "type": "VEC2"
  },
  {
   "bufferView": 3,
   "byteOffset": 0,
   "componentType": 5123,
   "count": 6012,
   "type": "SCALAR"
  },
  {
   "bufferView": 0,
   "byteOffset": 16140,
   "componentType": 5126,
   "count": 1304,
   "type": "VEC3",
   "min": [
    -0.0599491149,
    -0.0626467615,
    -0.454458982
   ],
   "max": [
    0.0912146792,
    0.0785233378,
    0.584044814
   ]
  },
  {
   "bufferView": 1,
   "byteOffset": 16140,
   "componentType": 5126,
   "count": 1304,
   "type": "VEC3"
  },
  {
   "bufferView": 2,
   "byteOffset": 10760,
   "componentType": 5126,
   "count": 1304,
   "type": "VEC2"
  },
  {
   "bufferView": 3,
   "byteOffset": 12024,
   "componentType": 5123,
   "count": 5628,
   "type": "SCALAR"
  },
  {
   "bufferView": 0,
   "byteOffset": 31788,
   "componentType": 5126,
   "count": 1425,
   "type": "VEC3",
   "min": [
    -0.135518149,
    -0.140220061,
    -0.634375513
   ],
   "max": [
    0.186063692,
    0.200765252,
    0.664777398
   ]
  },
  {
   "bufferView": 1,
   "byteOffset": 31788,
   "componentType": 5126,
   "count": 1425,
   "type": "VEC3"
  },
  {
   "bufferView": 2,
   "byteOffset": 21192,
   "componentType": 5126,
   "count": 1425,
   "type": "VEC2"
  },
  {
   "bufferView": 3,
   "byteOffset": 23280,
   "componentType": 5123,
   "count": 6354,
   "type": "SCALAR"
  }
 ],
 "samplers": [
  {
   "magFilter": 9729,
   "minFilter": 9987
  }
 ],
 "images": [
  {
   "mimeType": "image/jpeg",
   "name": "dry_branches_medium_01_nor_gl",
   "uri": "textures/dry_branches_medium_01_nor_gl_1k.jpg"
  },
  {
   "mimeType": "image/jpeg",
   "name": "dry_branches_medium_01_diff",
   "uri": "textures/dry_branches_medium_01_diff_1k.jpg"
  },
  {
   "mimeType": "image/jpeg",
   "name": "dry_branches_medium_01_rough",
   "uri": "textures/dry_branches_medium_01_arm_1k.jpg"
  }
 ],
 "textures": [
  {
   "sampler": 0,
   "source": 0
  },
  {
   "sampler": 0,
   "source": 1
  },
  {
   "sampler": 0,
   "source": 2
  }
 ],
 "materials": [
  {
   "doubleSided": true,
   "name": "dry_branches_medium_01",
   "normalTexture": {
    "index": 0
   },
   "pbrMetallicRoughness": {
    "baseColorTexture": {
     "index": 1
    },
    "metallicFactor": 0,
    "metallicRoughnessTexture": {
     "index": 2
    }
   }
  }
 ],
 "meshes": [
  {
   "primitives": [
    {
     "attributes": {
      "POSITION": 0,
      "NORMAL": 1,
      "TEXCOORD_0": 2
     },
     "indices": 3,
     "material": 0
    }
   ]
  },
  {
   "primitives": [
    {
     "attributes": {
      "POSITION": 4,
      "NORMAL": 5,
      "TEXCOORD_0": 6
     },
     "indices": 7,
     "material": 0
    }
   ]
  },
  {
   "primitives": [
    {
     "attributes": {
      "POSITION": 8,
      "NORMAL": 9,
      "TEXCOORD_0": 10
     },
     "indices": 11,
     "material": 0
    }
   ]
  }
 ],
 "nodes": [
  {
   "name": "dry_branches_medium_01_c",
   "translation": [
    0.450128585,
    0.0493369699,
    -0.0508807637
   ],
   "mesh": 0
  },
  {
   "name": "dry_branches_medium_01_b",
   "translation": [
    0.0173460841,
    0.0608551502,
    -0.0626116171
   ],
   "mesh": 1
  },
  {
   "name": "dry_branches_medium_01_a",
   "translation": [
    -0.410437673,
    0.123692334,
    -0.0554551333
   ],
   "mesh": 2
  }
 ],
 "scenes": [
  {
   "name": "Scene",
   "nodes": [
    0,
    1,
    2
   ]
  }
 ],
 "scene": 0
}
