{
  "asset": {
    "generator": "Khronos glTF Blender I/O v5.1.20",
    "version": "2.0"
  },
  "scene": 0,
  "scenes": [
    {
      "name": "Scene",
      "nodes": [
        0
      ]
    }
  ],
  "nodes": [
    {
      "mesh": 0,
      "name": "life_jacket"
    }
  ],
  "materials": [
    {
      "doubleSided": true,
      "name": "life_jacket",
      "normalTexture": {
        "index": 0
      },
      "pbrMetallicRoughness": {
        "baseColorTexture": {
          "index": 1
        },
        "metallicRoughnessTexture": {
          "index": 2
        }
      }
    }
  ],
  "meshes": [
    {
      "name": "life_jacket",
      "primitives": [
        {
          "attributes": {
            "POSITION": 0,
            "NORMAL": 1,
            "TEXCOORD_0": 2
          },
          "indices": 3,
          "material": 0
        }
      ]
    }
  ],
  "textures": [
    {
      "sampler": 0,
      "source": 0
    },
    {
      "sampler": 0,
      "source": 1
    },
    {
      "sampler": 0,
      "source": 2
    }
  ],
  "images": [
    {
      "mimeType": "image/jpeg",
      "name": "life_jacket_nor_gl",
      "uri": "textures/life_jacket_nor_gl_1k.jpg"
    },
    {
      "mimeType": "image/jpeg",
      "name": "life_jacket_diff",
      "uri": "textures/life_jacket_diff_1k.jpg"
    },
    {
      "mimeType": "image/jpeg",
      "name": "life_jacket_metal-life_jacket_rough",
      "uri": "textures/life_jacket_arm_1k.jpg"
    }
  ],
  "accessors": [
    {
      "bufferView": 0,
      "componentType": 5126,
      "count": 6284,
      "max": [
        0.3416215181350708,
        0.529290497303009,
        0.09528204798698425
      ],
      "min": [
        -0.35395991802215576,
        -0.4630138874053955,
        -0.08889999985694885
      ],
      "type": "VEC3"
    },
    {
      "bufferView": 1,
      "componentType": 5126,
      "count": 6284,
      "type": "VEC3"
    },
    {
      "bufferView": 2,
      "componentType": 5126,
      "count": 6284,
      "type": "VEC2"
    },
    {
      "bufferView": 3,
      "componentType": 5123,
      "count": 26904,
      "type": "SCALAR"
    }
  ],
  "bufferViews": [
    {
      "buffer": 0,
      "byteLength": 75408,
      "byteOffset": 0,
      "target": 34962
    },
    {
      "buffer": 0,
      "byteLength": 75408,
      "byteOffset": 75408,
      "target": 34962
    },
    {
      "buffer": 0,
      "byteLength": 50272,
      "byteOffset": 150816,
      "target": 34962
    },
    {
      "buffer": 0,
      "byteLength": 53808,
      "byteOffset": 201088,
      "target": 34963
    }
  ],
  "samplers": [
    {
      "magFilter": 9729,
      "minFilter": 9987
    }
  ],
  "buffers": [
    {
      "byteLength": 254896,
      "uri": "life_jacket.bin"
    }
  ]
}