{
 "asset": {
  "version": "2.0",
  "generator": "gltfpack 1.3"
 },
 "buffers": [
  {
   "uri": "rock_07.bin",
   "byteLength": 154928
  }
 ],
 "bufferViews": [
  {
   "buffer": 0,
   "byteOffset": 0,
   "byteLength": 24448,
   "byteStride": 8,
   "target": 34962
  },
  {
   "buffer": 0,
   "byteOffset": 24448,
   "byteLength": 36672,
   "byteStride": 12,
   "target": 34962
  },
  {
   "buffer": 0,
   "byteOffset": 61120,
   "byteLength": 36672,
   "byteStride": 12,
   "target": 34962
  },
  {
   "buffer": 0,
   "byteOffset": 97792,
   "byteLength": 24448,
   "byteStride": 8,
   "target": 34962
  },
  {
   "buffer": 0,
   "byteOffset": 122240,
   "byteLength": 32688,
   "target": 34963
  }
 ],
 "accessors": [
  {
   "bufferView": 0,
   "byteOffset": 0,
   "componentType": 5123,
   "count": 3056,
   "type": "VEC4",
   "normalized": true
  },
  {
   "bufferView": 1,
   "byteOffset": 0,
   "componentType": 5126,
   "count": 3056,
   "type": "VEC3",
   "min": [
    -0.0875801146,
    -0.00190715492,
    -0.177974984
   ],
   "max": [
    0.0813017935,
    0.141812995,
    0.142301977
   ]
  },
  {
   "bufferView": 2,
   "byteOffset": 0,
   "componentType": 5126,
   "count": 3056,
   "type": "VEC3"
  },
  {
   "bufferView": 3,
   "byteOffset": 0,
   "componentType": 5126,
   "count": 3056,
   "type": "VEC2"
  },
  {
   "bufferView": 4,
   "byteOffset": 0,
   "componentType": 5123,
   "count": 16344,
   "type": "SCALAR"
  }
 ],
 "samplers": [
  {
   "magFilter": 9729,
   "minFilter": 9987
  }
 ],
 "images": [
  {
   "mimeType": "image/jpeg",
   "name": "rock_07_nor_gl",
   "uri": "textures/rock_07_nor_gl_1k.jpg"
  },
  {
   "mimeType": "image/jpeg",
   "name": "rock_07_diff",
   "uri": "textures/rock_07_diff_1k.jpg"
  },
  {
   "mimeType": "image/jpeg",
   "name": "rock_07_rough",
   "uri": "textures/rock_07_arm_1k.jpg"
  }
 ],
 "textures": [
  {
   "sampler": 0,
   "source": 0
  },
  {
   "sampler": 0,
   "source": 1
  },
  {
   "sampler": 0,
   "source": 2
  }
 ],
 "materials": [
  {
   "doubleSided": true,
   "name": "rock_07",
   "normalTexture": {
    "index": 0
   },
   "pbrMetallicRoughness": {
    "baseColorTexture": {
     "index": 1
    },
    "metallicFactor": 0,
    "metallicRoughnessTexture": {
     "index": 2
    }
   }
  }
 ],
 "meshes": [
  {
   "primitives": [
    {
     "attributes": {
      "COLOR_0": 0,
      "POSITION": 1,
      "NORMAL": 2,
      "TEXCOORD_0": 3
     },
     "indices": 4,
     "material": 0
    }
   ]
  }
 ],
 "nodes": [
  {
   "name": "rock_07",
   "mesh": 0
  }
 ],
 "scenes": [
  {
   "name": "Scene",
   "nodes": [
    0
   ]
  }
 ],
 "scene": 0
}
