{
 "asset": {
  "version": "2.0",
  "generator": "gltfpack 1.3"
 },
 "extensionsUsed": [
  "KHR_materials_specular",
  "KHR_materials_transmission"
 ],
 "buffers": [
  {
   "uri": "portable_generator.bin",
   "byteLength": 436676
  }
 ],
 "bufferViews": [
  {
   "buffer": 0,
   "byteOffset": 0,
   "byteLength": 141240,
   "byteStride": 12,
   "target": 34962
  },
  {
   "buffer": 0,
   "byteOffset": 141240,
   "byteLength": 141240,
   "byteStride": 12,
   "target": 34962
  },
  {
   "buffer": 0,
   "byteOffset": 282480,
   "byteLength": 94160,
   "byteStride": 8,
   "target": 34962
  },
  {
   "buffer": 0,
   "byteOffset": 376640,
   "byteLength": 60036,
   "target": 34963
  }
 ],
 "accessors": [
  {
   "bufferView": 0,
   "byteOffset": 0,
   "componentType": 5126,
   "count": 11644,
   "type": "VEC3",
   "min": [
    -0.414517462,
    5.80669148e-05,
    -0.282000005
   ],
   "max": [
    0.403823316,
    0.576981306,
    0.282000005
   ]
  },
  {
   "bufferView": 1,
   "byteOffset": 0,
   "componentType": 5126,
   "count": 11644,
   "type": "VEC3"
  },
  {
   "bufferView": 2,
   "byteOffset": 0,
   "componentType": 5126,
   "count": 11644,
   "type": "VEC2"
  },
  {
   "bufferView": 3,
   "byteOffset": 0,
   "componentType": 5123,
   "count": 29790,
   "type": "SCALAR"
  },
  {
   "bufferView": 0,
   "byteOffset": 139728,
   "componentType": 5126,
   "count": 30,
   "type": "VEC3",
   "min": [
    0.0661101416,
    0.403922588,
    0.229687169
   ],
   "max": [
    0.118747175,
    0.455913842,
    0.245448917
   ]
  },
  {
   "bufferView": 1,
   "byteOffset": 139728,
   "componentType": 5126,
   "count": 30,
   "type": "VEC3"
  },
  {
   "bufferView": 2,
   "byteOffset": 93152,
   "componentType": 5126,
   "count": 30,
   "type": "VEC2"
  },
  {
   "bufferView": 3,
   "byteOffset": 59580,
   "componentType": 5123,
   "count": 60,
   "type": "SCALAR"
  },
  {
   "bufferView": 0,
   "byteOffset": 140088,
   "componentType": 5126,
   "count": 18,
   "type": "VEC3",
   "min": [
    -0.00330621353,
    -0.00331428321,
    -0.00193790533
   ],
   "max": [
    0.00330621586,
    0.00329473685,
    0.00334728393
   ]
  },
  {
   "bufferView": 1,
   "byteOffset": 140088,
   "componentType": 5126,
   "count": 18,
   "type": "VEC3"
  },
  {
   "bufferView": 2,
   "byteOffset": 93392,
   "componentType": 5126,
   "count": 18,
   "type": "VEC2"
  },
  {
   "bufferView": 3,
   "byteOffset": 59700,
   "componentType": 5123,
   "count": 42,
   "type": "SCALAR"
  },
  {
   "bufferView": 0,
   "byteOffset": 140304,
   "componentType": 5126,
   "count": 46,
   "type": "VEC3",
   "min": [
    -0.013297285,
    -0.00909913331,
    -0.0212814678
   ],
   "max": [
    0.013297338,
    0.0108608371,
    0.0169478245
   ]
  },
  {
   "bufferView": 1,
   "byteOffset": 140304,
   "componentType": 5126,
   "count": 46,
   "type": "VEC3"
  },
  {
   "bufferView": 2,
   "byteOffset": 93536,
   "componentType": 5126,
   "count": 46,
   "type": "VEC2"
  },
  {
   "bufferView": 3,
   "byteOffset": 59784,
   "componentType": 5123,
   "count": 72,
   "type": "SCALAR"
  },
  {
   "bufferView": 0,
   "byteOffset": 140856,
   "componentType": 5126,
   "count": 32,
   "type": "VEC3",
   "min": [
    -0.0040678042,
    -0.00301419594,
    -0.00135349529
   ],
   "max": [
    0.0040678042,
    0.00301419594,
    0.0128768114
   ]
  },
  {
   "bufferView": 1,
   "byteOffset": 140856,
   "componentType": 5126,
   "count": 32,
   "type": "VEC3"
  },
  {
   "bufferView": 2,
   "byteOffset": 93904,
   "componentType": 5126,
   "count": 32,
   "type": "VEC2"
  },
  {
   "bufferView": 3,
   "byteOffset": 59928,
   "componentType": 5123,
   "count": 54,
   "type": "SCALAR"
  }
 ],
 "samplers": [
  {
   "magFilter": 9729,
   "minFilter": 9987
  }
 ],
 "images": [
  {
   "mimeType": "image/jpeg",
   "name": "portable_generator_spec",
   "uri": "textures/portable_generator_spec_1k.jpg"
  },
  {
   "mimeType": "image/jpeg",
   "name": "portable_generator_nor_gl",
   "uri": "textures/portable_generator_nor_gl_1k.jpg"
  },
  {
   "mimeType": "image/jpeg",
   "name": "portable_generator_diff",
   "uri": "textures/portable_generator_diff_1k.jpg"
  },
  {
   "mimeType": "image/jpeg",
   "name": "portable_generator_metal-portable_generator_rough",
   "uri": "textures/portable_generator_arm_1k.jpg"
  },
  {
   "mimeType": "image/jpeg",
   "name": "portable_generator_diff-portable_generator_alpha",
   "uri": "textures/portable_generator_diff_1k.jpg"
  }
 ],
 "textures": [
  {
   "sampler": 0,
   "source": 0
  },
  {
   "sampler": 0,
   "source": 1
  },
  {
   "sampler": 0,
   "source": 2
  },
  {
   "sampler": 0,
   "source": 3
  },
  {
   "sampler": 0,
   "source": 1
  },
  {
   "sampler": 0,
   "source": 4
  },
  {
   "sampler": 0,
   "source": 3
  }
 ],
 "materials": [
  {
   "doubleSided": true,
   "extensions": {
    "KHR_materials_specular": {
     "specularTexture": {
      "index": 0
     }
    }
   },
   "name": "portable_generator",
   "normalTexture": {
    "index": 1
   },
   "pbrMetallicRoughness": {
    "baseColorTexture": {
     "index": 2
    },
    "metallicRoughnessTexture": {
     "index": 3
    }
   }
  },
  {
   "alphaMode": "BLEND",
   "doubleSided": true,
   "extensions": {
    "KHR_materials_transmission": {
     "transmissionFactor": 1
    }
   },
   "name": "portable_generator_glass",
   "normalTexture": {
    "index": 4
   },
   "pbrMetallicRoughness": {
    "baseColorTexture": {
     "index": 5
    },
    "metallicRoughnessTexture": {
     "index": 6
    }
   }
  }
 ],
 "meshes": [
  {
   "primitives": [
    {
     "attributes": {
      "POSITION": 0,
      "NORMAL": 1,
      "TEXCOORD_0": 2
     },
     "indices": 3,
     "material": 0
    },
    {
     "attributes": {
      "POSITION": 4,
      "NORMAL": 5,
      "TEXCOORD_0": 6
     },
     "indices": 7,
     "material": 1
    }
   ]
  },
  {
   "primitives": [
    {
     "attributes": {
      "POSITION": 8,
      "NORMAL": 9,
      "TEXCOORD_0": 10
     },
     "indices": 11,
     "material": 0
    }
   ]
  },
  {
   "primitives": [
    {
     "attributes": {
      "POSITION": 12,
      "NORMAL": 13,
      "TEXCOORD_0": 14
     },
     "indices": 15,
     "material": 0
    }
   ]
  },
  {
   "primitives": [
    {
     "attributes": {
      "POSITION": 16,
      "NORMAL": 17,
      "TEXCOORD_0": 18
     },
     "indices": 19,
     "material": 0
    }
   ]
  }
 ],
 "nodes": [
  {
   "name": "portable_generator",
   "mesh": 0
  },
  {
   "name": "portable_generator_dial",
   "translation": [
    0.0922518298,
    0.416306138,
    0.24030219
   ],
   "rotation": [
    -0.103019126,
    0,
    0,
    0.994679391
   ],
   "mesh": 1
  },
  {
   "name": "portable_generator_switch",
   "translation": [
    -0.260182649,
    0.437927067,
    0.23846513
   ],
   "mesh": 2
  },
  {
   "name": "portable_generator_toggle",
   "translation": [
    0.0123603353,
    0.429083943,
    0.234245598
   ],
   "rotation": [
    -0.103019126,
    0,
    0,
    0.994679391
   ],
   "mesh": 3
  }
 ],
 "scenes": [
  {
   "name": "Scene",
   "nodes": [
    0,
    1,
    2,
    3
   ]
  }
 ],
 "scene": 0
}
