{
 "asset": {
  "version": "2.0",
  "generator": "gltfpack 1.3"
 },
 "buffers": [
  {
   "uri": "boulder_01.bin",
   "byteLength": 280224
  }
 ],
 "bufferViews": [
  {
   "buffer": 0,
   "byteOffset": 0,
   "byteLength": 82584,
   "byteStride": 12,
   "target": 34962
  },
  {
   "buffer": 0,
   "byteOffset": 82584,
   "byteLength": 82584,
   "byteStride": 12,
   "target": 34962
  },
  {
   "buffer": 0,
   "byteOffset": 165168,
   "byteLength": 55056,
   "byteStride": 8,
   "target": 34962
  },
  {
   "buffer": 0,
   "byteOffset": 220224,
   "byteLength": 60000,
   "target": 34963
  }
 ],
 "accessors": [
  {
   "bufferView": 0,
   "byteOffset": 0,
   "componentType": 5126,
   "count": 6882,
   "type": "VEC3",
   "min": [
    -0.746699631,
    -0.0729741976,
    -0.948440492
   ],
   "max": [
    0.523205638,
    0.928579032,
    0.8803128
   ]
  },
  {
   "bufferView": 1,
   "byteOffset": 0,
   "componentType": 5126,
   "count": 6882,
   "type": "VEC3"
  },
  {
   "bufferView": 2,
   "byteOffset": 0,
   "componentType": 5126,
   "count": 6882,
   "type": "VEC2"
  },
  {
   "bufferView": 3,
   "byteOffset": 0,
   "componentType": 5123,
   "count": 30000,
   "type": "SCALAR"
  }
 ],
 "samplers": [
  {
   "magFilter": 9729,
   "minFilter": 9987
  }
 ],
 "images": [
  {
   "mimeType": "image/jpeg",
   "name": "boulder_01_nor_gl",
   "uri": "textures/boulder_01_nor_gl_1k.jpg"
  },
  {
   "mimeType": "image/jpeg",
   "name": "boulder_01_diff",
   "uri": "textures/boulder_01_diff_1k.jpg"
  },
  {
   "mimeType": "image/jpeg",
   "name": "boulder_01_rough",
   "uri": "textures/boulder_01_arm_1k.jpg"
  }
 ],
 "textures": [
  {
   "sampler": 0,
   "source": 0
  },
  {
   "sampler": 0,
   "source": 1
  },
  {
   "sampler": 0,
   "source": 2
  }
 ],
 "materials": [
  {
   "doubleSided": true,
   "name": "boulder_01",
   "normalTexture": {
    "index": 0
   },
   "pbrMetallicRoughness": {
    "baseColorTexture": {
     "index": 1
    },
    "metallicFactor": 0,
    "metallicRoughnessTexture": {
     "index": 2
    }
   }
  }
 ],
 "meshes": [
  {
   "primitives": [
    {
     "attributes": {
      "POSITION": 0,
      "NORMAL": 1,
      "TEXCOORD_0": 2
     },
     "indices": 3,
     "material": 0
    }
   ]
  }
 ],
 "nodes": [
  {
   "name": "boulder_01",
   "mesh": 0
  }
 ],
 "scenes": [
  {
   "name": "Scene",
   "nodes": [
    0
   ]
  }
 ],
 "scene": 0
}
