{
 "asset": {
  "version": "2.0",
  "generator": "gltfpack 1.3"
 },
 "buffers": [
  {
   "uri": "dead_tree_trunk.bin",
   "byteLength": 194996
  }
 ],
 "bufferViews": [
  {
   "buffer": 0,
   "byteOffset": 0,
   "byteLength": 55128,
   "byteStride": 12,
   "target": 34962
  },
  {
   "buffer": 0,
   "byteOffset": 55128,
   "byteLength": 36752,
   "byteStride": 8,
   "target": 34962
  },
  {
   "buffer": 0,
   "byteOffset": 91880,
   "byteLength": 55128,
   "byteStride": 12,
   "target": 34962
  },
  {
   "buffer": 0,
   "byteOffset": 147008,
   "byteLength": 47988,
   "target": 34963
  }
 ],
 "accessors": [
  {
   "bufferView": 0,
   "byteOffset": 0,
   "componentType": 5126,
   "count": 4594,
   "type": "VEC3",
   "min": [
    -1.53910053,
    -0.0277335308,
    -0.170802876
   ],
   "max": [
    1.50969017,
    0.260225236,
    0.105927393
   ]
  },
  {
   "bufferView": 1,
   "byteOffset": 0,
   "componentType": 5126,
   "count": 4594,
   "type": "VEC2"
  },
  {
   "bufferView": 2,
   "byteOffset": 0,
   "componentType": 5126,
   "count": 4594,
   "type": "VEC3"
  },
  {
   "bufferView": 3,
   "byteOffset": 0,
   "componentType": 5123,
   "count": 23994,
   "type": "SCALAR"
  }
 ],
 "samplers": [
  {
   "magFilter": 9729,
   "minFilter": 9987
  }
 ],
 "images": [
  {
   "mimeType": "image/jpeg",
   "name": "dead_tree_trunk_nor_gl",
   "uri": "textures/dead_tree_trunk_nor_gl_1k.jpg"
  },
  {
   "mimeType": "image/jpeg",
   "name": "dead_tree_trunk_diff",
   "uri": "textures/dead_tree_trunk_diff_1k.jpg"
  },
  {
   "mimeType": "image/jpeg",
   "name": "dead_tree_trunk_rough",
   "uri": "textures/dead_tree_trunk_arm_1k.jpg"
  }
 ],
 "textures": [
  {
   "sampler": 0,
   "source": 0
  },
  {
   "sampler": 0,
   "source": 1
  },
  {
   "sampler": 0,
   "source": 2
  }
 ],
 "materials": [
  {
   "doubleSided": true,
   "name": "dead_tree_trunk",
   "normalTexture": {
    "index": 0
   },
   "pbrMetallicRoughness": {
    "baseColorTexture": {
     "index": 1
    },
    "metallicFactor": 0,
    "metallicRoughnessTexture": {
     "index": 2
    }
   }
  }
 ],
 "meshes": [
  {
   "primitives": [
    {
     "attributes": {
      "POSITION": 0,
      "TEXCOORD_0": 1,
      "NORMAL": 2
     },
     "indices": 3,
     "material": 0
    }
   ]
  }
 ],
 "nodes": [
  {
   "name": "dead_tree_trunk",
   "mesh": 0
  }
 ],
 "scenes": [
  {
   "name": "Scene",
   "nodes": [
    0
   ]
  }
 ],
 "scene": 0
}
