{
 "asset": {
  "version": "2.0",
  "generator": "gltfpack 1.3"
 },
 "buffers": [
  {
   "uri": "street_lamp_01.bin",
   "byteLength": 217776
  }
 ],
 "bufferViews": [
  {
   "buffer": 0,
   "byteOffset": 0,
   "byteLength": 63648,
   "byteStride": 12,
   "target": 34962
  },
  {
   "buffer": 0,
   "byteOffset": 63648,
   "byteLength": 63648,
   "byteStride": 12,
   "target": 34962
  },
  {
   "buffer": 0,
   "byteOffset": 127296,
   "byteLength": 42432,
   "byteStride": 8,
   "target": 34962
  },
  {
   "buffer": 0,
   "byteOffset": 169728,
   "byteLength": 48048,
   "target": 34963
  }
 ],
 "accessors": [
  {
   "bufferView": 0,
   "byteOffset": 0,
   "componentType": 5126,
   "count": 5169,
   "type": "VEC3",
   "min": [
    -0.35155189,
    0,
    -0.193232387
   ],
   "max": [
    0.35086748,
    3.86993718,
    0.193232402
   ]
  },
  {
   "bufferView": 1,
   "byteOffset": 0,
   "componentType": 5126,
   "count": 5169,
   "type": "VEC3"
  },
  {
   "bufferView": 2,
   "byteOffset": 0,
   "componentType": 5126,
   "count": 5169,
   "type": "VEC2"
  },
  {
   "bufferView": 3,
   "byteOffset": 0,
   "componentType": 5123,
   "count": 23556,
   "type": "SCALAR"
  },
  {
   "bufferView": 0,
   "byteOffset": 62028,
   "componentType": 5126,
   "count": 89,
   "type": "VEC3",
   "min": [
    -0.173498482,
    3.1376543,
    -0.173820525
   ],
   "max": [
    0.173498482,
    3.50954771,
    0.173742995
   ]
  },
  {
   "bufferView": 1,
   "byteOffset": 62028,
   "componentType": 5126,
   "count": 89,
   "type": "VEC3"
  },
  {
   "bufferView": 2,
   "byteOffset": 41352,
   "componentType": 5126,
   "count": 89,
   "type": "VEC2"
  },
  {
   "bufferView": 3,
   "byteOffset": 47112,
   "componentType": 5123,
   "count": 294,
   "type": "SCALAR"
  },
  {
   "bufferView": 0,
   "byteOffset": 63096,
   "componentType": 5126,
   "count": 46,
   "type": "VEC3",
   "min": [
    -0.029966535,
    3.22710633,
    -0.0277113449
   ],
   "max": [
    0.027740242,
    3.29915762,
    0.0277121849
   ]
  },
  {
   "bufferView": 1,
   "byteOffset": 63096,
   "componentType": 5126,
   "count": 46,
   "type": "VEC3"
  },
  {
   "bufferView": 2,
   "byteOffset": 42064,
   "componentType": 5126,
   "count": 46,
   "type": "VEC2"
  },
  {
   "bufferView": 3,
   "byteOffset": 47700,
   "componentType": 5123,
   "count": 174,
   "type": "SCALAR"
  }
 ],
 "samplers": [
  {
   "magFilter": 9729,
   "minFilter": 9987
  }
 ],
 "images": [
  {
   "mimeType": "image/jpeg",
   "name": "street_lamp_01_nor_gl",
   "uri": "textures/street_lamp_01_nor_gl_1k.jpg"
  },
  {
   "mimeType": "image/jpeg",
   "name": "street_lamp_01_diff",
   "uri": "textures/street_lamp_01_diff_1k.jpg"
  },
  {
   "mimeType": "image/jpeg",
   "name": "street_lamp_01_metal-street_lamp_01_rough",
   "uri": "textures/street_lamp_01_arm_1k.jpg"
  },
  {
   "mimeType": "image/jpeg",
   "name": "street_lamp_01_diff-street_lamp_01_opacity",
   "uri": "textures/street_lamp_01_diff_1k.jpg"
  }
 ],
 "textures": [
  {
   "sampler": 0,
   "source": 0
  },
  {
   "sampler": 0,
   "source": 1
  },
  {
   "sampler": 0,
   "source": 2
  },
  {
   "sampler": 0,
   "source": 0
  },
  {
   "sampler": 0,
   "source": 3
  },
  {
   "sampler": 0,
   "source": 2
  },
  {
   "sampler": 0,
   "source": 0
  },
  {
   "sampler": 0,
   "source": 1
  },
  {
   "sampler": 0,
   "source": 2
  }
 ],
 "materials": [
  {
   "doubleSided": true,
   "name": "street_lamp_01",
   "normalTexture": {
    "index": 0
   },
   "pbrMetallicRoughness": {
    "baseColorTexture": {
     "index": 1
    },
    "metallicRoughnessTexture": {
     "index": 2
    }
   }
  },
  {
   "alphaMode": "BLEND",
   "doubleSided": true,
   "name": "street_lamp_01_glass",
   "normalTexture": {
    "index": 3
   },
   "pbrMetallicRoughness": {
    "baseColorTexture": {
     "index": 4
    },
    "metallicRoughnessTexture": {
     "index": 5
    }
   }
  },
  {
   "doubleSided": true,
   "name": "street_lamp_01_bulb",
   "normalTexture": {
    "index": 6
   },
   "pbrMetallicRoughness": {
    "baseColorTexture": {
     "index": 7
    },
    "metallicRoughnessTexture": {
     "index": 8
    }
   }
  }
 ],
 "meshes": [
  {
   "primitives": [
    {
     "attributes": {
      "POSITION": 0,
      "NORMAL": 1,
      "TEXCOORD_0": 2
     },
     "indices": 3,
     "material": 0
    },
    {
     "attributes": {
      "POSITION": 4,
      "NORMAL": 5,
      "TEXCOORD_0": 6
     },
     "indices": 7,
     "material": 1
    },
    {
     "attributes": {
      "POSITION": 8,
      "NORMAL": 9,
      "TEXCOORD_0": 10
     },
     "indices": 11,
     "material": 2
    }
   ]
  }
 ],
 "nodes": [
  {
   "name": "street_lamp_01",
   "mesh": 0
  }
 ],
 "scenes": [
  {
   "name": "Scene",
   "nodes": [
    0
   ]
  }
 ],
 "scene": 0
}
