{
 "asset": {
  "version": "2.0",
  "generator": "gltfpack 1.3"
 },
 "extensionsUsed": [
  "KHR_materials_transmission"
 ],
 "buffers": [
  {
   "uri": "Lantern_01.bin",
   "byteLength": 226488
  }
 ],
 "bufferViews": [
  {
   "buffer": 0,
   "byteOffset": 0,
   "byteLength": 66840,
   "byteStride": 12,
   "target": 34962
  },
  {
   "buffer": 0,
   "byteOffset": 66840,
   "byteLength": 66840,
   "byteStride": 12,
   "target": 34962
  },
  {
   "buffer": 0,
   "byteOffset": 133680,
   "byteLength": 44560,
   "byteStride": 8,
   "target": 34962
  },
  {
   "buffer": 0,
   "byteOffset": 178240,
   "byteLength": 48246,
   "target": 34963
  }
 ],
 "accessors": [
  {
   "bufferView": 0,
   "byteOffset": 0,
   "componentType": 5126,
   "count": 5124,
   "type": "VEC3",
   "min": [
    -0.0608624741,
    0,
    -0.0484896041
   ],
   "max": [
    0.060922008,
    0.293994248,
    0.048591543
   ]
  },
  {
   "bufferView": 1,
   "byteOffset": 0,
   "componentType": 5126,
   "count": 5124,
   "type": "VEC3"
  },
  {
   "bufferView": 2,
   "byteOffset": 0,
   "componentType": 5126,
   "count": 5124,
   "type": "VEC2"
  },
  {
   "bufferView": 3,
   "byteOffset": 0,
   "componentType": 5123,
   "count": 21939,
   "type": "SCALAR"
  },
  {
   "bufferView": 0,
   "byteOffset": 61488,
   "componentType": 5126,
   "count": 446,
   "type": "VEC3",
   "min": [
    -0.035244409,
    0.0613834038,
    -0.0352904871
   ],
   "max": [
    0.0350660011,
    0.129664227,
    0.0352578163
   ]
  },
  {
   "bufferView": 1,
   "byteOffset": 61488,
   "componentType": 5126,
   "count": 446,
   "type": "VEC3"
  },
  {
   "bufferView": 2,
   "byteOffset": 40992,
   "componentType": 5126,
   "count": 446,
   "type": "VEC2"
  },
  {
   "bufferView": 3,
   "byteOffset": 43878,
   "componentType": 5123,
   "count": 2184,
   "type": "SCALAR"
  }
 ],
 "samplers": [
  {
   "magFilter": 9729,
   "minFilter": 9987
  }
 ],
 "images": [
  {
   "mimeType": "image/jpeg",
   "name": "Lantern_01_brass_nor_gl",
   "uri": "textures/Lantern_01_brass_nor_gl_1k.jpg"
  },
  {
   "mimeType": "image/jpeg",
   "name": "Lantern_01_brass_diff",
   "uri": "textures/Lantern_01_brass_diff_1k.jpg"
  },
  {
   "mimeType": "image/jpeg",
   "name": "Lantern_01_brass_metallic-Lantern_01_brass_roughness",
   "uri": "textures/Lantern_01_brass_arm_1k.jpg"
  },
  {
   "mimeType": "image/jpeg",
   "name": "Lantern_01_brass_diff-Lantern_01_brass_opacity",
   "uri": "textures/Lantern_01_brass_diff_1k.jpg"
  }
 ],
 "textures": [
  {
   "sampler": 0,
   "source": 0
  },
  {
   "sampler": 0,
   "source": 1
  },
  {
   "sampler": 0,
   "source": 2
  },
  {
   "sampler": 0,
   "source": 0
  },
  {
   "sampler": 0,
   "source": 3
  },
  {
   "sampler": 0,
   "source": 2
  }
 ],
 "materials": [
  {
   "alphaMode": "OPAQUE",
   "doubleSided": true,
   "extensions": {
    "KHR_materials_transmission": {
     "transmissionFactor": 1
    }
   },
   "name": "Lantern_01_brass",
   "normalTexture": {
    "index": 0
   },
   "pbrMetallicRoughness": {
    "baseColorTexture": {
     "index": 1
    },
    "metallicRoughnessTexture": {
     "index": 2
    }
   }
  },
  {
   "alphaMode": "BLEND",
   "doubleSided": true,
   "name": "Lantern_01_glass",
   "normalTexture": {
    "index": 3
   },
   "pbrMetallicRoughness": {
    "baseColorTexture": {
     "index": 4
    },
    "metallicRoughnessTexture": {
     "index": 5
    }
   }
  }
 ],
 "meshes": [
  {
   "primitives": [
    {
     "attributes": {
      "POSITION": 0,
      "NORMAL": 1,
      "TEXCOORD_0": 2
     },
     "indices": 3,
     "material": 0
    }
   ]
  },
  {
   "primitives": [
    {
     "attributes": {
      "POSITION": 4,
      "NORMAL": 5,
      "TEXCOORD_0": 6
     },
     "indices": 7,
     "material": 1
    }
   ]
  }
 ],
 "nodes": [
  {
   "name": "Lantern_01",
   "mesh": 0
  },
  {
   "name": "Lantern_01_glass",
   "mesh": 1
  }
 ],
 "scenes": [
  {
   "name": "Scene",
   "nodes": [
    0,
    1
   ]
  }
 ],
 "scene": 0
}
